<?xml version="1.0" encoding="UTF-8" standalone="no"?>
<!-- Created with Inkscape (http://www.inkscape.org/) -->

<svg
   xmlns:dc="http://purl.org/dc/elements/1.1/"
   xmlns:cc="http://creativecommons.org/ns#"
   xmlns:rdf="http://www.w3.org/1999/02/22-rdf-syntax-ns#"
   xmlns:svg="http://www.w3.org/2000/svg"
   xmlns="http://www.w3.org/2000/svg"
   xmlns:sodipodi="http://sodipodi.sourceforge.net/DTD/sodipodi-0.dtd"
   xmlns:inkscape="http://www.inkscape.org/namespaces/inkscape"
   width="91.040001"
   height="85.7743"
   viewBox="0 0 24.087666 22.694449"
   version="1.1"
   id="svg841"
   inkscape:version="0.92.2 2405546, 2018-03-11"
   sodipodi:docname="bookworm.svg"
   inkscape:export-filename="C:\Users\David\Documents\GitHub\pikwadraat\assets\site\logo.png"
   inkscape:export-xdpi="8.1280003"
   inkscape:export-ydpi="8.1280003"
   style="enable-background:new">
  <defs
     id="defs835" />
  <sodipodi:namedview
     id="base"
     pagecolor="#ffffff"
     bordercolor="#666666"
     borderopacity="1.0"
     inkscape:pageopacity="0.0"
     inkscape:pageshadow="2"
     inkscape:zoom="5.6568542"
     inkscape:cx="70.528308"
     inkscape:cy="44.062554"
     inkscape:document-units="mm"
     inkscape:current-layer="layer2"
     showgrid="true"
     fit-margin-top="0"
     fit-margin-left="0"
     fit-margin-right="0"
     fit-margin-bottom="0"
     inkscape:window-width="1920"
     inkscape:window-height="1007"
     inkscape:window-x="0"
     inkscape:window-y="47"
     inkscape:window-maximized="1"
     units="px"
     inkscape:snap-smooth-nodes="true"
     inkscape:snap-global="true" />
  <metadata
     id="metadata838">
    <rdf:RDF>
      <cc:Work
         rdf:about="">
        <dc:format>image/svg+xml</dc:format>
        <dc:type
           rdf:resource="http://purl.org/dc/dcmitype/StillImage" />
        <dc:title />
      </cc:Work>
    </rdf:RDF>
  </metadata>
  <g
     inkscape:groupmode="layer"
     id="layer2"
     inkscape:label="sub"
     style="display:inline"
     transform="translate(9.1205726,-5.9773422)">
    <g
       id="g919"
       transform="translate(-26.802096,5.1178215)">
      <circle
         transform="matrix(-0.39818857,-0.03802466,-0.03802466,0.39818857,-55.173319,-53.635343)"
         r="5.2916665"
         cy="125.61306"
         cx="-234.55952"
         id="circle5088-7"
         style="display:inline;opacity:1;fill:#fe9a9a;fill-opacity:1;stroke:none;stroke-width:0.86150259;stroke-linecap:square;stroke-miterlimit:4;stroke-dasharray:none;stroke-opacity:1" />
      <path
         transform="matrix(-0.39818857,-0.03802466,-0.03802466,0.39818857,-55.173319,-53.635343)"
         style="color:#000000;font-style:normal;font-variant:normal;font-weight:normal;font-stretch:normal;font-size:medium;line-height:normal;font-family:sans-serif;font-variant-ligatures:normal;font-variant-position:normal;font-variant-caps:normal;font-variant-numeric:normal;font-variant-alternates:normal;font-feature-settings:normal;text-indent:0;text-align:start;text-decoration:none;text-decoration-line:none;text-decoration-style:solid;text-decoration-color:#000000;letter-spacing:normal;word-spacing:normal;text-transform:none;writing-mode:lr-tb;direction:ltr;text-orientation:mixed;dominant-baseline:auto;baseline-shift:baseline;text-anchor:start;white-space:normal;shape-padding:0;clip-rule:nonzero;display:inline;overflow:visible;visibility:visible;opacity:0.97000002;isolation:auto;mix-blend-mode:normal;color-interpolation:sRGB;color-interpolation-filters:linearRGB;solid-color:#000000;solid-opacity:1;vector-effect:none;fill:#ffffff;fill-opacity:1;fill-rule:nonzero;stroke:none;stroke-width:0.37506461;stroke-linecap:square;stroke-linejoin:miter;stroke-miterlimit:4;stroke-dasharray:none;stroke-dashoffset:0;stroke-opacity:1;color-rendering:auto;image-rendering:auto;shape-rendering:auto;text-rendering:auto;enable-background:accumulate"
         d="m -232.76987,121.12278 c -0.773,-0.007 -1.29924,0.39955 -1.64492,0.94922 l -0.11687,0.1836 0.48318,0.2832 0.089,-0.13867 c 0.28127,-0.4373 0.63109,-0.70899 1.17744,-0.70899 0.2735,0 0.5072,0.0898 0.6646,0.22071 0.1574,0.13095 0.23898,0.29256 0.23898,0.47461 0,0.13841 -0.0263,0.25908 -0.13606,0.43554 -0.10981,0.17647 -0.30853,0.40012 -0.64541,0.69336 l -1.8996,1.43624 v 0.66145 h 3.30729 v -0.66145 l -2.25545,0.009 1.20012,-1.0039 0.002,-0.002 c 0.3719,-0.32793 0.61611,-0.5815 0.7745,-0.82813 0.1584,-0.24662 0.22328,-0.4959 0.22328,-0.74609 v -0.01 c 0,-0.35823 -0.16244,-0.68815 -0.42912,-0.90234 -0.30817,-0.24753 -0.67322,-0.34212 -1.03269,-0.34546 z"
         id="path817-5"
         inkscape:connector-curvature="0"
         sodipodi:nodetypes="cccccscsccccccccccssssc" />
      <path
         transform="matrix(-0.39818857,-0.03802466,-0.03802466,0.39818857,-55.173319,-53.635343)"
         sodipodi:nodetypes="ccscccccccccc"
         style="display:inline;opacity:0.97000002;fill:#ffffff;fill-opacity:1;stroke:none;stroke-width:0.86150259;stroke-linecap:square;stroke-miterlimit:4;stroke-dasharray:none;stroke-opacity:1"
         d="m -239.18974,124.9516 v 0.66145 c 0.14688,0 0.66146,0.15661 0.66146,0.66146 v 3.96875 c 0.063,0.0521 0.59615,-0.078 0.66146,-0.0289 v -4.60135 h 1.32292 v 5.29167 h 0.66145 v -5.29167 h 0.66146 v -0.66145 z"
         id="circle841-3"
         inkscape:connector-curvature="0" />
      <circle
         transform="matrix(-0.39818857,-0.03802466,-0.03802466,0.39818857,-60.276414,-54.122659)"
         style="display:inline;opacity:1;fill:#fe9a9a;fill-opacity:1;stroke:none;stroke-width:0.86150259;stroke-linecap:square;stroke-miterlimit:4;stroke-dasharray:none;stroke-opacity:1"
         id="circle938-6"
         cx="-234.55952"
         cy="125.61306"
         r="5.2916665" />
      <path
         transform="matrix(0.26458333,0,0,0.26458333,29.993129,3.3815616)"
         sodipodi:nodetypes="sssssssssssssss"
         inkscape:connector-curvature="0"
         id="path940-3-2"
         d="M 1.7479479,0.53255242 C 1.1482559,0.81265535 0.78185054,1.384022 0.51145252,2.0443127 0.24105403,2.7046146 0.05165036,3.5341419 0.00125885,4.7211631 c 0,0 -0.00256616,0.00664 -3.7076883e-4,0.00873 C 0.35093958,5.0579638 0.64073607,4.6649771 0.64073607,4.6649771 1.8513621,4.6877821 1.7640659,2.9874181 1.9634007,2.5216754 2.1627015,2.0560146 2.3503027,1.7893374 2.6779737,1.6277306 3.8132506,1.0678162 4.5386287,1.4582476 5.3401641,2.0291501 5.6323189,2.2372491 5.6682989,2.5808738 5.6822553,3.0785726 5.6962132,3.5763544 5.5769738,4.2853292 5.2502154,5.3156238 5.0192032,6.0440251 6.2458906,5.9333059 6.7045781,5.736139 6.7069381,5.735119 6.4370288,6.602749 6.7072681,5.729609 7.0618648,4.5839052 7.2357526,3.7553661 7.2274878,3.0532009 7.2192214,2.3510434 7.1150118,1.6775117 6.6243551,1.2636489 4.5034301,-0.52533564 3.0284589,-0.0655545 1.7479479,0.53255242 Z"
         style="color:#000000;font-style:normal;font-variant:normal;font-weight:normal;font-stretch:normal;font-size:medium;line-height:normal;font-family:sans-serif;font-variant-ligatures:normal;font-variant-position:normal;font-variant-caps:normal;font-variant-numeric:normal;font-variant-alternates:normal;font-feature-settings:normal;text-indent:0;text-align:start;text-decoration:none;text-decoration-line:none;text-decoration-style:solid;text-decoration-color:#000000;letter-spacing:normal;word-spacing:normal;text-transform:none;writing-mode:lr-tb;direction:ltr;text-orientation:mixed;dominant-baseline:auto;baseline-shift:baseline;text-anchor:start;white-space:normal;shape-padding:0;clip-rule:nonzero;display:inline;overflow:visible;visibility:visible;opacity:1;isolation:auto;mix-blend-mode:normal;color-interpolation:sRGB;color-interpolation-filters:linearRGB;solid-color:#000000;solid-opacity:1;vector-effect:none;fill:#fe9a9a;fill-opacity:0.97254902;fill-rule:nonzero;stroke:none;stroke-width:0.56702685;stroke-linecap:square;stroke-linejoin:miter;stroke-miterlimit:4;stroke-dasharray:none;stroke-dashoffset:0;stroke-opacity:1;color-rendering:auto;image-rendering:auto;shape-rendering:auto;text-rendering:auto;enable-background:accumulate" />
      <path
         transform="matrix(-0.39818857,-0.03802466,-0.03802466,0.39818857,-60.276414,-54.122659)"
         sodipodi:nodetypes="cccccscsccccccccccssssc"
         inkscape:connector-curvature="0"
         id="path940-2"
         d="m -232.76987,121.12278 c -0.773,-0.007 -1.29924,0.39955 -1.64492,0.94922 l -0.11687,0.1836 0.48318,0.2832 0.089,-0.13867 c 0.28127,-0.4373 0.63109,-0.70899 1.17744,-0.70899 0.2735,0 0.5072,0.0898 0.6646,0.22071 0.1574,0.13095 0.23898,0.29256 0.23898,0.47461 0,0.13841 -0.0263,0.25908 -0.13606,0.43554 -0.10981,0.17647 -0.30853,0.40012 -0.64541,0.69336 l -1.8996,1.43624 v 0.66145 h 3.30729 v -0.66145 l -2.25545,0.009 1.20012,-1.0039 0.002,-0.002 c 0.3719,-0.32793 0.61611,-0.5815 0.7745,-0.82813 0.1584,-0.24662 0.22328,-0.4959 0.22328,-0.74609 v -0.01 c 0,-0.35823 -0.16244,-0.68815 -0.42912,-0.90234 -0.30817,-0.24753 -0.67322,-0.34212 -1.03269,-0.34546 z"
         style="color:#000000;font-style:normal;font-variant:normal;font-weight:normal;font-stretch:normal;font-size:medium;line-height:normal;font-family:sans-serif;font-variant-ligatures:normal;font-variant-position:normal;font-variant-caps:normal;font-variant-numeric:normal;font-variant-alternates:normal;font-feature-settings:normal;text-indent:0;text-align:start;text-decoration:none;text-decoration-line:none;text-decoration-style:solid;text-decoration-color:#000000;letter-spacing:normal;word-spacing:normal;text-transform:none;writing-mode:lr-tb;direction:ltr;text-orientation:mixed;dominant-baseline:auto;baseline-shift:baseline;text-anchor:start;white-space:normal;shape-padding:0;clip-rule:nonzero;display:inline;overflow:visible;visibility:visible;opacity:0.97000002;isolation:auto;mix-blend-mode:normal;color-interpolation:sRGB;color-interpolation-filters:linearRGB;solid-color:#000000;solid-opacity:1;vector-effect:none;fill:#ffffff;fill-opacity:1;fill-rule:nonzero;stroke:none;stroke-width:0.37506461;stroke-linecap:square;stroke-linejoin:miter;stroke-miterlimit:4;stroke-dasharray:none;stroke-dashoffset:0;stroke-opacity:1;color-rendering:auto;image-rendering:auto;shape-rendering:auto;text-rendering:auto;enable-background:accumulate" />
      <path
         transform="matrix(-0.39818857,-0.03802466,-0.03802466,0.39818857,-60.276414,-54.122659)"
         inkscape:connector-curvature="0"
         id="path942-9"
         d="m -239.18974,124.9516 v 0.66145 c 0.14688,0 0.66146,0.15661 0.66146,0.66146 v 3.96875 c 0.063,0.0521 0.59615,-0.078 0.66146,-0.0289 v -4.60135 h 1.32292 v 5.29167 h 0.66145 v -5.29167 h 0.66146 v -0.66145 z"
         style="display:inline;opacity:0.97000002;fill:#ffffff;fill-opacity:1;stroke:none;stroke-width:0.86150259;stroke-linecap:square;stroke-miterlimit:4;stroke-dasharray:none;stroke-opacity:1"
         sodipodi:nodetypes="ccscccccccccc" />
    </g>
    <path
       style="fill:none;stroke:#000000;stroke-width:0.265;stroke-linecap:butt;stroke-linejoin:miter;stroke-opacity:1;stroke-miterlimit:4;stroke-dasharray:none"
       d="M 4.312558,9.1739928 C 4.0708217,10.096747 3.7526042,11.057002 3.3753607,11.615882 c -0.89297,1.32292 -1.6536499,1.38906 -1.8520899,1.78594 -0.19843,0.39687 1.45521,1.25677 2.1166699,0.66146 0.66146,-0.59532 0.2153207,-1.201144 0.2153207,-1.201144"
       id="path4677"
       inkscape:connector-curvature="0"
       sodipodi:nodetypes="csccc" />
    <path
       style="fill:#505b5d;fill-opacity:1;stroke:none;stroke-width:0.26458332px;stroke-linecap:butt;stroke-linejoin:miter;stroke-opacity:1"
       d="m -4.9695427,19.352436 -1.88258,-13.0845135 c 4.2578351,2.6018076 6.46791401,5.4816585 8.7463955,8.1383565"
       id="path4705"
       inkscape:connector-curvature="0"
       sodipodi:nodetypes="ccc" />
    <path
       style="fill:#505b5d;fill-opacity:1;stroke:none;stroke-width:0.26458332px;stroke-linecap:butt;stroke-linejoin:miter;stroke-opacity:1"
       d="M 1.8942728,14.406279 C 4.8815369,12.32663 9.5378172,10.619979 13.797789,8.8170057 l -1.72607,8.6761963"
       id="path4707"
       inkscape:connector-curvature="0"
       sodipodi:nodetypes="ccc" />
    <path
       style="fill:#505b5d;fill-opacity:1;stroke:none;stroke-width:0.26458332px;stroke-linecap:butt;stroke-linejoin:miter;stroke-opacity:1"
       d="m -7.5770911,7.9517205 0.1403165,-1.3330068 c 4.0166881,2.1865574 5.8019638,5.0929253 8.6060788,7.6706353"
       id="path4703"
       inkscape:connector-curvature="0"
       sodipodi:nodetypes="ccc" />
    <path
       style="fill:#505b5d;fill-opacity:1;stroke:none;stroke-width:0.26458332px;stroke-linecap:butt;stroke-linejoin:miter;stroke-opacity:1"
       d="M -7.9044962,6.6888719 1.1693042,14.125647 4.5369001,14.827229 14.967094,9.6822905 11.833359,23.246219 3.086963,28.671792 -0.79512682,27.362171 -9.1205726,18.615775 Z"
       id="path4701"
       inkscape:connector-curvature="0" />
    <path
       style="fill:#505b5d;fill-opacity:1;stroke:none;stroke-width:0.26458332px;stroke-linecap:butt;stroke-linejoin:miter;stroke-opacity:1"
       d="M 14.013932,11.093537 14.344661,9.4398913 C 10.354827,10.560127 7.5881613,12.827082 4.5368998,14.827229 Z"
       id="path2416"
       inkscape:connector-curvature="0"
       sodipodi:nodetypes="cccc" />
  </g>
</svg>
