<?xml version="1.0" encoding="UTF-8" standalone="no"?>
<!-- Created with Inkscape (http://www.inkscape.org/) -->

<svg
   xmlns:dc="http://purl.org/dc/elements/1.1/"
   xmlns:cc="http://creativecommons.org/ns#"
   xmlns:rdf="http://www.w3.org/1999/02/22-rdf-syntax-ns#"
   xmlns:svg="http://www.w3.org/2000/svg"
   xmlns="http://www.w3.org/2000/svg"
   xmlns:sodipodi="http://sodipodi.sourceforge.net/DTD/sodipodi-0.dtd"
   xmlns:inkscape="http://www.inkscape.org/namespaces/inkscape"
   width="40"
   height="40"
   viewBox="0 0 10.583333 10.583333"
   version="1.1"
   id="svg841"
   inkscape:version="0.92.2 2405546, 2018-03-11"
   sodipodi:docname="logo.svg"
   inkscape:export-filename="C:\Users\David\Documents\GitHub\pikwadraat\assets\site\logo.png"
   inkscape:export-xdpi="8.1280003"
   inkscape:export-ydpi="8.1280003">
  <defs
     id="defs835" />
  <sodipodi:namedview
     id="base"
     pagecolor="#ffffff"
     bordercolor="#666666"
     borderopacity="1.0"
     inkscape:pageopacity="0.0"
     inkscape:pageshadow="2"
     inkscape:zoom="15.839192"
     inkscape:cx="15.130877"
     inkscape:cy="16.499985"
     inkscape:document-units="mm"
     inkscape:current-layer="layer1"
     showgrid="true"
     fit-margin-top="0"
     fit-margin-left="0"
     fit-margin-right="0"
     fit-margin-bottom="0"
     inkscape:window-width="1920"
     inkscape:window-height="1007"
     inkscape:window-x="0"
     inkscape:window-y="47"
     inkscape:window-maximized="1"
     units="px">
    <inkscape:grid
       type="xygrid"
       id="grid827" />
  </sodipodi:namedview>
  <metadata
     id="metadata838">
    <rdf:RDF>
      <cc:Work
         rdf:about="">
        <dc:format>image/svg+xml</dc:format>
        <dc:type
           rdf:resource="http://purl.org/dc/dcmitype/StillImage" />
        <dc:title />
      </cc:Work>
    </rdf:RDF>
  </metadata>
  <g
     inkscape:label="Layer 1"
     inkscape:groupmode="layer"
     id="layer1"
     transform="translate(239.85119,-120.32139)">
    <path
       style="display:inline;opacity:0.97000002;fill:#fe9a9a;fill-opacity:1;stroke:none;stroke-width:3.25607276;stroke-linecap:square;stroke-miterlimit:4;stroke-dasharray:none;stroke-opacity:1"
       d="M 20 0 A 19.999999 19.999999 0 0 0 0 20 A 19.999999 19.999999 0 0 0 7 35.189453 L 7 22.076172 C 7 20.167964 6.555137 20 6 20 L 6 19 L 18 19 L 18 20 L 17 20 L 17 39.748047 A 19.999999 19.999999 0 0 0 20 40 A 19.999999 19.999999 0 0 0 40 20 A 19.999999 19.999999 0 0 0 20 0 z M 26.101562 3.9101562 C 29.433481 3.9101562 31.753906 5.7463878 31.753906 8.0351562 L 31.753906 8.0800781 C 31.753906 9.7796561 30.880931 11.116269 27.658203 13.654297 L 20.501953 19 L 32 19 L 32 20 L 19 20 L 19 19 L 27.056641 13.15625 C 30.088162 10.799526 30.798828 9.4632007 30.798828 8.1035156 C 30.798828 6.1320007 28.750636 4.5898438 26.046875 4.5898438 C 23.397653 4.5898438 21.566771 5.8371078 20.228516 7.6953125 L 19.492188 7.3105469 C 20.912382 5.2937154 22.906124 3.9101562 26.101562 3.9101562 z M 8 20 L 8 35.96875 A 19.999999 19.999999 0 0 0 16 39.59375 L 16 20 L 8 20 z "
       transform="matrix(0.26458333,0,0,0.26458333,-239.85119,120.32139)"
       id="circle5088" />
  </g>
</svg>
